<svg id="Layer_1" data-name="Layer 1" xmlns="http://www.w3.org/2000/svg" viewBox="0 0 376 374.87"><defs><style>.cls-1{fill:#488f9b;}</style></defs><title>ODGO Icons</title><path class="cls-1" d="M187.6,362.22c-96.22,0-174.5-78.28-174.5-174.5S91.38,13.22,187.6,13.22,362.1,91.5,362.1,187.72,283.82,362.22,187.6,362.22Zm0-339C96.89,23.22,23.1,97,23.1,187.72s73.79,164.5,164.5,164.5,164.5-73.79,164.5-164.5S278.3,23.22,187.6,23.22Z"/><path class="cls-1" d="M252.92,52.67h-148a17,17,0,0,0-17,17V294.14a17,17,0,0,0,17,17h50.69l-2.65-5-2.64-5H104.9a7,7,0,0,1-7-7V69.67a7,7,0,0,1,7-7h148a7,7,0,0,1,7,7V294.14a7,7,0,0,1-7,7H163l-2.66,5-2.65,5h95.26a17,17,0,0,0,17-17V69.67A17,17,0,0,0,252.92,52.67Z"/><path class="cls-1" d="M270.3,73.31h-148a12,12,0,0,0-12,12V309.78a12,12,0,0,0,12,12h148a12,12,0,0,0,12-12V85.31A12,12,0,0,0,270.3,73.31ZM156.62,313.09l-1-1.95-2.65-5-2.64-5-1.58-3,.24-212,15.84,0-.25,212.05-1.58,3-2.66,5-2.65,5Z"/></svg>