<svg id="Layer_1" data-name="Layer 1" xmlns="http://www.w3.org/2000/svg" viewBox="0 0 376 374.87"><defs><style>.cls-1{fill:#9b3a15;}</style></defs><title>ODGO Icons</title><path class="cls-1" d="M188.34,362.2c-96.22,0-174.5-78.28-174.5-174.5S92.12,13.2,188.34,13.2s174.5,78.28,174.5,174.5S284.56,362.2,188.34,362.2Zm0-339C97.63,23.2,23.84,97,23.84,187.7s73.79,164.5,164.5,164.5,164.5-73.8,164.5-164.5S279.05,23.2,188.34,23.2Z"/><path class="cls-1" d="M180.94,59.87,52.55,166.65a3.55,3.55,0,0,0,2.27,6.28H80a11,11,0,0,1,11,11V291a11,11,0,0,0,11,11H155a11,11,0,0,0,11-11V205a11,11,0,0,1,11-11H199a11,11,0,0,1,11,11V291a11,11,0,0,0,11,11H275a11,11,0,0,0,11-11V184a11,11,0,0,1,11-11h24.14a3.55,3.55,0,0,0,2.27-6.28L195.06,59.87A11,11,0,0,0,180.94,59.87Z"/></svg>