<svg xmlns="http://www.w3.org/2000/svg" width="92.202" height="41.789" viewBox="0 0 92.202 41.789">
    <defs>
        <style>
            .cls-1{ fill:#fff }
        </style>
    </defs>
    <g id="Grupo_1" data-name="Grupo 1" transform="translate(0 .01)">
        <g id="Grupo_12" data-name="Grupo 12" transform="translate(23.509 2.687)">
            <path id="Caminho_14" d="M138.109 13.43v28.287H134.6v-3.2a7.925 7.925 0 0 1-3.088 2.554 9.581 9.581 0 0 1-4.117.877 10.6 10.6 0 0 1-5.26-1.3 9.291 9.291 0 0 1-3.641-3.641 10.837 10.837 0 0 1-1.316-5.395 10.733 10.733 0 0 1 1.322-5.372 9.32 9.32 0 0 1 3.641-3.621 10.637 10.637 0 0 1 5.26-1.3 9.658 9.658 0 0 1 4 .821 7.779 7.779 0 0 1 3.049 2.421V13.43zm-6.937 24.417a6.293 6.293 0 0 0 2.44-2.516 8.32 8.32 0 0 0 0-7.435 6.184 6.184 0 0 0-2.44-2.5 7.34 7.34 0 0 0-6.957 0 6.314 6.314 0 0 0-2.44 2.5 8.17 8.17 0 0 0 0 7.435 6.441 6.441 0 0 0 2.44 2.516 7.21 7.21 0 0 0 6.957 0z" class="cls-1" data-name="Caminho 14" transform="translate(-117.18 -13.43)"/>
        </g>
        <path id="Caminho_15" d="M24.209 61.19a9.035 9.035 0 0 0-.61-1.224 8.4 8.4 0 0 0-.863-1.244 10.027 10.027 0 0 0-.836-.922 11.026 11.026 0 0 0-3.483-2.313 10.563 10.563 0 0 0-4.057-.792 10.847 10.847 0 0 0-4.111.782 10.251 10.251 0 0 0-2.63 1.555 9.289 9.289 0 0 0-.823.728c-.128.128-.253.257-.371.387a10.106 10.106 0 0 0-1.935 3.021 10.573 10.573 0 0 0-.79 4.083 10.316 10.316 0 0 0 .792 4.049A10.854 10.854 0 0 0 6.8 72.724a10.72 10.72 0 0 0 3.463 2.3 10.608 10.608 0 0 0 4.1.806 10.389 10.389 0 0 0 4.036-.817 11.14 11.14 0 0 0 3.5-2.357 9.99 9.99 0 0 0 2.307-3.368 10.356 10.356 0 0 0 .8-4.036 10.514 10.514 0 0 0-.797-4.062zM19.35 70.5a6.563 6.563 0 0 1-4.016 2.084 7.006 7.006 0 0 1-.971.064 7.649 7.649 0 0 1-.782-.04 6.678 6.678 0 0 1-4.25-2.108 7.268 7.268 0 0 1-2.08-5.254 7.295 7.295 0 0 1 1.916-5.1c.05-.054.1-.108.154-.162a6.73 6.73 0 0 1 5.042-2.149 6.644 6.644 0 0 1 4.987 2.155 7.476 7.476 0 0 1 1.015 1.328 6.426 6.426 0 0 1 .674 1.5 7.884 7.884 0 0 1 .367 2.431A7.313 7.313 0 0 1 19.35 70.5z" class="cls-1" data-name="Caminho 15" transform="translate(-2.958 -43.726)"/>
        <path id="Caminho_16" d="M0 11.791c1.2 1.138 2.363 2.3 3.521 3.475s2.3 2.353 3.427 3.553l1.7 1.792 1.671 1.814 1.671 1.814 1.645 1.836-1.884.411a26.919 26.919 0 0 1 2.241-5.533c.467-.877.987-1.721 1.531-2.55s1.142-1.617 1.765-2.385a37.732 37.732 0 0 1 4.073-4.285 43.276 43.276 0 0 1 4.656-3.615 46.781 46.781 0 0 1 10.51-5.208A51.621 51.621 0 0 1 42.16 1.3a55.7 55.7 0 0 1 5.77-.949A58.464 58.464 0 0 1 59.568.217a68.267 68.267 0 0 1 11.417 1.96 86.298 86.298 0 0 1 5.537 1.645c1.816.634 3.619 1.3 5.389 2.046a91.345 91.345 0 0 1 10.292 5.1C88.72 9.387 85.193 7.931 81.6 6.7a91.941 91.941 0 0 0-10.958-3.052 74.6 74.6 0 0 0-11.209-1.481A62.128 62.128 0 0 0 48.2 2.58a53.259 53.259 0 0 0-5.509 1.027A50.4 50.4 0 0 0 37.333 5.2a46.115 46.115 0 0 0-9.947 4.973 38.422 38.422 0 0 0-8.245 7.363 27.606 27.606 0 0 0-5.288 9.549l-.012.038a1.078 1.078 0 0 1-1.342.726 1.065 1.065 0 0 1-.53-.355l-1.555-1.914-1.529-1.937-1.528-1.934-1.5-1.956c-1.009-1.3-1.99-2.622-2.973-3.942S.935 13.153 0 11.791z" class="cls-1" data-name="Caminho 16"/>
        <g id="Grupo_13" data-name="Grupo 13" transform="translate(71.176 11.084)">
            <path id="Caminho_17" d="M365.285 55.29A10.512 10.512 0 1 0 375.8 65.814a10.515 10.515 0 0 0-10.515-10.524zm1.956 15.249a2.458 2.458 0 0 1-.237.088 4.544 4.544 0 0 1-.49.148c-.08.02-.162.04-.243.054l-.158.03a2.135 2.135 0 0 1-.213.03q-.157.021-.313.03c-.1 0-.2.01-.3.01-.124 0-.247 0-.371-.014-.108 0-.213-.02-.321-.034a.7.7 0 0 0-.088-.01c-.1-.02-.209-.04-.313-.064a5.062 5.062 0 0 1-1.99-.921c-.07-.054-.138-.108-.2-.162s-.114-.1-.173-.148a2.419 2.419 0 0 1-.2-.2c-.054-.06-.108-.114-.158-.173s-.1-.124-.154-.183a4.764 4.764 0 0 1-.283-.391c-.044-.064-.084-.134-.128-.2a1.852 1.852 0 0 1-.118-.213c-.034-.074-.074-.148-.108-.223s-.07-.148-.1-.229a5.534 5.534 0 0 1-.243-.728 3.175 3.175 0 0 1-.054-.243l-.03-.158a1.984 1.984 0 0 1-.03-.213 5.21 5.21 0 0 1-.04-.607 5.122 5.122 0 0 1 3.174-4.731 4.252 4.252 0 0 1 .479-.169 3.981 3.981 0 0 1 .485-.118 4.821 4.821 0 0 1 .985-.094c.124 0 .247 0 .367.014a2.085 2.085 0 0 1 .307.034.753.753 0 0 1 .148.02 2.524 2.524 0 0 1 .263.05.127.127 0 0 1 .054.014 2.428 2.428 0 0 1 .321.084c.114.03.223.07.327.108a4.4 4.4 0 0 1 .7.321 4.677 4.677 0 0 1 .624.405c.1.074.193.154.287.237a3.39 3.39 0 0 1 .273.263c.108.114.213.233.317.357a4.124 4.124 0 0 1 .273.377c.01 0 .014.014.02.024a3.713 3.713 0 0 1 .213.361.2.2 0 0 1 .034.064 3.864 3.864 0 0 1 .2.421 5.133 5.133 0 0 1-2.795 6.682z" class="cls-1" data-name="Caminho 17" transform="translate(-354.78 -55.29)"/>
        </g>
        <path id="Caminho_19" d="M254.216 59.131v17.961q0 5.931-3.088 8.819t-9.022 2.889a22.558 22.558 0 0 1-5.932-.762 12.933 12.933 0 0 1-4.65-2.2l2.486-4.49a10.2 10.2 0 0 0 3.449 1.783 13.714 13.714 0 0 0 4.169.662 6.765 6.765 0 0 0 4.791-1.463 5.832 5.832 0 0 0 1.543-4.43v-.923a8.749 8.749 0 0 1-6.815 2.686 11.449 11.449 0 0 1-5.433-1.3 9.913 9.913 0 0 1-3.908-3.669 11.015 11.015 0 0 1 0-10.906 9.955 9.955 0 0 1 3.908-3.669 11.443 11.443 0 0 1 5.433-1.3 8.559 8.559 0 0 1 7.136 3.088v-2.776zm-7.758 13.931a5.42 5.42 0 0 0 0-7.656 5.766 5.766 0 0 0-4.069-1.463 5.83 5.83 0 0 0-4.089 1.463 5.372 5.372 0 0 0 0 7.656 5.824 5.824 0 0 0 4.089 1.463 5.748 5.748 0 0 0 4.069-1.463z" class="cls-1" data-name="Caminho 19" transform="translate(-184.145 -47.019)"/>
    </g>
</svg>
