<svg id="Layer_1" data-name="Layer 1" xmlns="http://www.w3.org/2000/svg" viewBox="0 0 376 374.87"><defs><style>.cls-1{fill:#bca742;}</style></defs><title>ODGO Icons</title><path class="cls-1" d="M155,141.38a5.77,5.77,0,0,0-1.65-.23,5.61,5.61,0,0,0-4.4,2c-1.42,1.82-1.27,4.42.43,7.34,1.33,2.27,5.61,4,11.22,5.2-.19-2.36-.36-4.36-.5-6C159.68,145.22,157.87,142.24,155,141.38Z"/><path class="cls-1" d="M187.71,165a160.66,160.66,0,0,1-19.62-1.07c2.7,33.91,7.8,102.28,8.67,113.84q5.37.45,10.86.45c3.72,0,7.4-.16,11-.46.87-11.61,6-79.93,8.67-113.83A162.71,162.71,0,0,1,187.71,165Z"/><path class="cls-1" d="M226.05,150.53c1.71-2.92,1.86-5.52.43-7.34a5.61,5.61,0,0,0-4.4-2,5.82,5.82,0,0,0-1.65.23c-2.89.86-4.7,3.84-5.1,8.38-.14,1.6-.3,3.61-.5,6C220.45,154.51,224.72,152.8,226.05,150.53Z"/><path class="cls-1" d="M288.71,149.68A100.67,100.67,0,0,0,186.63,49c-54.9.76-99.41,46.08-99.23,101a100.25,100.25,0,0,0,25.33,66.43h0S136,243.51,137.3,260.57h0a12.2,12.2,0,0,0,8.2,10.74A131.44,131.44,0,0,0,169.86,277c-1.11-14.83-6.13-82-8.7-114.19-7.95-1.58-15-4.27-17.69-8.83-3.17-5.41-3.13-10.88.09-15a12.53,12.53,0,0,1,13.36-4.14c2.69.8,9,3.79,10,14.33.17,2,.39,4.61.65,7.74a151.81,151.81,0,0,0,17.19,1.22v0l2.59,0h1.17c.75,0,1.49,0,2.21,0v0a154.51,154.51,0,0,0,17.2-1.22c.25-3.13.47-5.75.65-7.74.92-10.54,7.27-13.53,10-14.33A12.54,12.54,0,0,1,231.85,139c3.23,4.11,3.26,9.58.09,15-2.67,4.56-9.74,7.25-17.68,8.83-2.57,32.2-7.59,99.29-8.7,114.17a131.46,131.46,0,0,0,24.19-5.67,12.17,12.17,0,0,0,8.2-10.73h0c1.28-12.79,25.42-44.13,25.42-44.13h0A100.27,100.27,0,0,0,288.71,149.68Z"/><path class="cls-1" d="M138.64,279.75l1.22,17.5c3,39.24,92.55,39.24,95.53,0l1.22-17.5a142.56,142.56,0,0,1-98,0Z"/><path class="cls-1" d="M188.05,361.85c-95.94,0-174-78.05-174-174s78.06-174,174-174,174,78.06,174,174S284,361.85,188.05,361.85Zm0-338c-90.43,0-164,73.57-164,164s73.57,164,164,164,164-73.57,164-164S278.48,23.85,188.05,23.85Z"/></svg>