<svg id="Layer_1" data-name="Layer 1" xmlns="http://www.w3.org/2000/svg" viewBox="0 0 376 374.87"><defs><style>.cls-1{fill:#707070;}</style></defs><title>ODGO Icons</title><path class="cls-1" d="M188.05,52.67c-71.22,0-129,45.05-129,116.41,0,97.08,77.52,140.11,112.49,153.56a6.89,6.89,0,0,0,9.36-6.43V236.55a11,11,0,0,0-7.87-10.62,54.75,54.75,0,1,1,30,0,11,11,0,0,0-7.86,10.62v79.38a6.89,6.89,0,0,0,9.44,6.4c35-14,112.41-57.84,112.41-153.25C317,97.72,259.27,52.67,188.05,52.67Z"/><path class="cls-1" d="M188.05,361.89c-96,0-174-78.05-174-174s78.05-174,174-174,174,78.06,174,174S284,361.89,188.05,361.89Zm0-338c-90.43,0-164,73.57-164,164s73.57,164,164,164,164-73.57,164-164S278.48,23.89,188.05,23.89Z"/></svg>