<svg id="Layer_1" data-name="Layer 1" xmlns="http://www.w3.org/2000/svg" viewBox="0 0 376 374.87"><defs><style>.cls-1{fill:#63967d;}</style></defs><title>ODGO Icons</title><path class="cls-1" d="M240.23,232.68,206.1,145.17a3,3,0,0,0-5.56.14L161.91,262a3,3,0,0,1-5.55.16L127.56,190a3,3,0,0,0-5.39-.21l-1.32,2.65A3,3,0,0,1,118.2,194H54V243.9a11.37,11.37,0,0,0,11.37,11.36h44a11.37,11.37,0,0,1,11.37,11.37v44A11.37,11.37,0,0,0,132.1,322H243.87a11.37,11.37,0,0,0,11.37-11.37v-44a11.37,11.37,0,0,1,11.36-11.37h45A11.37,11.37,0,0,0,323,243.9V193.53H269.5a3,3,0,0,0-2.58,1.5l-21.35,38A3,3,0,0,1,240.23,232.68Z"/><path class="cls-1" d="M255.24,109.4v-45A11.37,11.37,0,0,0,243.87,53H132.1a11.37,11.37,0,0,0-11.36,11.37v45a11.37,11.37,0,0,1-11.37,11.36h-44A11.37,11.37,0,0,0,54,132.13V181h56a3,3,0,0,0,2.61-1.55l13.16-24.49a3,3,0,0,1,5.34.29L154.51,213a3,3,0,0,0,5.53-.13L200,98.42a3,3,0,0,1,5.54-.11l37.29,94.14a3,3,0,0,0,5.25.48L255,181.84a2.93,2.93,0,0,1,2.5-1.39H323V132.13a11.37,11.37,0,0,0-11.37-11.37h-45A11.37,11.37,0,0,1,255.24,109.4Z"/><path class="cls-1" d="M188.5,362C92.28,362,14,283.72,14,187.5S92.28,13,188.5,13,363,91.28,363,187.5,284.72,362,188.5,362Zm0-339C97.79,23,24,96.79,24,187.5S97.79,352,188.5,352,353,278.21,353,187.5,279.21,23,188.5,23Z"/></svg>